<svg width="107.000000" height="86.775513" viewBox="0 0 107 86.7755" fill="none" xmlns="http://www.w3.org/2000/svg" xmlns:xlink="http://www.w3.org/1999/xlink">
	<desc>
			Created with Pixso.
	</desc>
	<defs/>
	<path id="Vector" d="M104 36.72C103.46 35.09 102.95 33.72 102.56 32.29C102.3 31.39 101.8 31.14 100.92 31.17C98.16 31.28 95.37 31.14 92.63 31.48C89.89 31.81 88.03 31 86.79 28.56C86.42 27.83 85.8 27.19 85.27 26.54C84.53 25.68 84.39 24.81 84.82 23.71C86.03 20.63 87.07 17.49 88.29 14.38C88.68 13.37 88.48 12.75 87.58 12.16C85.92 11.04 84.37 9.84 82.76 8.72C80.5 7.18 81.12 7.06 78.87 8.75C76.38 10.6 73.9 12.42 71.45 14.32C70.66 14.94 69.9 15.02 68.97 14.69C67.47 14.13 65.98 13.57 64.42 13.23C63.1 12.92 62.48 12.16 62.14 10.93C61.24 7.79 60.22 4.68 59.32 1.54C59.07 0.64 58.61 0.2 57.68 0.17C55.37 0.14 53.09 0.14 50.8 0.03C49.53 -0.03 48.83 0.42 48.46 1.68C47.61 4.74 46.6 7.74 45.72 10.79C45.39 12 44.82 12.7 43.53 12.98C41.89 13.34 40.25 13.85 38.7 14.46C37.63 14.88 36.84 14.69 35.99 14.04C33.23 11.94 30.44 9.89 27.7 7.76C26.97 7.2 26.41 7.2 25.7 7.74C23.73 9.17 21.72 10.57 19.72 11.91C18.87 12.47 18.85 13.06 19.18 13.93C20.43 17.15 21.61 20.41 22.71 23.66C22.91 24.25 22.71 25.14 22.37 25.68C21.36 27.24 20.12 28.67 19.07 30.22C18.45 31.11 17.72 31.48 16.62 31.42C13.15 31.28 9.68 31.2 6.18 31.17C5.7 31.17 4.94 31.39 4.8 31.73C4.15 33.3 3.67 34.93 3.05 36.72C3.81 36.72 4.32 36.72 4.86 36.72C10.02 36.72 15.21 36.61 20.37 36.78C22.4 36.83 23.75 36.44 24.43 34.42C24.66 33.78 25.16 33.22 25.53 32.65C34.05 19.59 51.51 14.32 65.92 20.38C73.39 23.52 79.01 28.62 82.87 35.71C83.1 36.16 83.72 36.69 84.14 36.69C90.65 36.75 97.2 36.72 104 36.72Z" fill="#FFFFFF" fill-opacity="1.000000" fill-rule="nonzero"/>
	<path id="Vector" d="M104 36.72C97.17 36.72 90.65 36.75 84.11 36.66C83.69 36.66 83.07 36.13 82.84 35.68C78.98 28.59 73.37 23.49 65.89 20.35C51.51 14.32 34.05 19.59 25.47 32.63C25.08 33.22 24.57 33.75 24.37 34.39C23.7 36.41 22.34 36.83 20.31 36.75C15.15 36.58 9.99 36.69 4.8 36.69C4.29 36.69 3.79 36.69 3 36.69C3.59 34.93 4.07 33.27 4.74 31.7C4.88 31.37 5.65 31.14 6.13 31.14C9.59 31.17 13.09 31.25 16.56 31.39C17.69 31.45 18.39 31.09 19.02 30.19C20.09 28.65 21.3 27.22 22.32 25.65C22.65 25.11 22.85 24.22 22.65 23.63C21.55 20.35 20.34 17.13 19.13 13.9C18.79 13.03 18.85 12.45 19.66 11.88C21.69 10.54 23.67 9.11 25.64 7.71C26.35 7.2 26.91 7.18 27.65 7.74C30.38 9.87 33.2 11.91 35.94 14.01C36.78 14.66 37.57 14.88 38.65 14.44C40.2 13.82 41.83 13.31 43.47 12.95C44.77 12.67 45.33 11.97 45.67 10.76C46.51 7.71 47.53 4.71 48.4 1.65C48.77 0.39 49.48 -0.06 50.75 0C53.03 0.11 55.34 0.11 57.63 0.14C58.59 0.14 59.01 0.59 59.26 1.51C60.16 4.65 61.18 7.76 62.08 10.9C62.42 12.14 63.04 12.89 64.37 13.2C65.92 13.57 67.41 14.1 68.91 14.66C69.84 15.02 70.6 14.91 71.39 14.3C73.84 12.42 76.33 10.57 78.81 8.72C81.06 7.04 80.47 7.15 82.7 8.69C84.31 9.81 85.89 11.02 87.52 12.08C88.43 12.67 88.62 13.29 88.23 14.3C87.04 17.38 85.97 20.52 84.76 23.63C84.34 24.72 84.48 25.59 85.21 26.46C85.75 27.1 86.34 27.75 86.73 28.48C87.97 30.92 89.84 31.73 92.57 31.39C95.31 31.06 98.1 31.2 100.86 31.09C101.74 31.06 102.25 31.34 102.5 32.21C102.98 33.72 103.49 35.09 104 36.72Z" fill="#FF3811" fill-opacity="1.000000" fill-rule="nonzero"/>
	<path id="Vector" d="M75.34 46.19C72.01 42.91 68.66 39.61 65.3 36.27C64.71 35.68 64.34 36.07 63.92 36.49C62.34 38.09 60.76 39.69 59.15 41.23C58.13 42.21 57.03 43.17 55.96 44.12C56.05 44.26 56.13 44.37 56.22 44.51C59.35 43.89 62.08 44.54 64.34 46.75C66.57 48.97 67.16 51.74 66.6 54.74C69.53 51.88 72.38 49.08 75.34 46.19Z" fill="#FFFFFF" fill-opacity="1.000000" fill-rule="nonzero"/>
	<path id="Vector" d="M51.03 44.34C50.6 43.87 50.41 43.56 50.15 43.31C47.9 41.06 45.58 38.88 43.38 36.58C42.59 35.77 42.11 35.79 41.35 36.58C38.42 39.55 35.49 42.47 32.47 45.35C31.71 46.08 31.88 46.53 32.53 47.17C34.89 49.5 37.24 51.86 39.6 54.18C39.8 54.38 40.08 54.49 40.42 54.71C39.44 47.99 44.17 43.36 51.03 44.34Z" fill="#FFFFFF" fill-opacity="1.000000" fill-rule="nonzero"/>
	<path id="Vector" d="M40.06 33.36C36.47 36.97 33 40.5 29.56 43.98C29.82 44.32 30.16 44.79 30.47 45.18C34.1 41.57 37.6 38.12 41.33 34.45C40.93 34.11 40.48 33.72 40.06 33.36Z" fill="#FFFFFF" fill-opacity="1.000000" fill-rule="nonzero"/>
	<path id="Vector" d="M80.08 41.57C79.99 41.43 79.94 41.26 79.82 41.12C76.64 37.95 73.48 34.81 70.29 31.65C69.75 31.11 69.36 31.09 68.77 31.65C68.15 32.26 68.26 32.68 68.82 33.24C71.67 36.02 74.46 38.82 77.29 41.62C77.74 42.07 78.22 42.49 78.87 43.11C79.29 42.58 79.63 42.16 80.08 41.57Z" fill="#FFFFFF" fill-opacity="1.000000" fill-rule="nonzero"/>
	<path id="Vector" d="M77.82 43.81C74.55 40.56 71.33 37.39 68.12 34.17C67.58 33.64 67.13 33.22 66.4 34C65.69 34.76 66.09 35.21 66.65 35.74C69.53 38.57 72.38 41.4 75.23 44.23C76.5 45.52 76.52 45.52 77.82 43.81Z" fill="#FFFFFF" fill-opacity="1.000000" fill-rule="nonzero"/>
	<path id="Vector" d="M38.87 32.32C37.6 30.78 37.63 30.78 36.28 32.09C33.51 34.84 30.75 37.56 28.01 40.31C26.69 41.62 26.71 41.79 28.29 42.69C31.82 39.24 35.32 35.79 38.87 32.32Z" fill="#FFFFFF" fill-opacity="1.000000" fill-rule="nonzero"/>
	<path id="Vector" d="M75.34 46.19C72.38 49.11 69.53 51.88 66.6 54.77C67.16 51.77 66.57 49.02 64.34 46.78C62.08 44.54 59.32 43.92 56.22 44.54C56.13 44.4 56.05 44.29 55.96 44.15C57.03 43.19 58.11 42.27 59.15 41.26C60.76 39.69 62.34 38.12 63.92 36.52C64.34 36.1 64.71 35.71 65.3 36.3C68.66 39.58 72.01 42.89 75.34 46.19ZM67.64 41.65C67.05 42.44 66.34 42.97 66.4 43.36C66.48 43.84 67.22 44.23 67.67 44.65C68.06 44.23 68.74 43.81 68.77 43.36C68.82 42.91 68.2 42.41 67.64 41.65Z" fill="#444444" fill-opacity="1.000000" fill-rule="nonzero"/>
	<path id="Vector" d="M51.03 44.34C44.15 43.36 39.44 47.99 40.42 54.74C40.08 54.52 39.8 54.41 39.6 54.21C37.24 51.88 34.89 49.53 32.53 47.2C31.88 46.56 31.71 46.11 32.47 45.38C35.46 42.49 38.42 39.55 41.35 36.61C42.11 35.82 42.59 35.79 43.38 36.61C45.58 38.91 47.9 41.09 50.15 43.33C50.41 43.56 50.63 43.87 51.03 44.34ZM41.18 43.45C40.39 42.8 39.89 42.1 39.52 42.16C39.01 42.24 38.59 42.94 38.14 43.36C38.56 43.78 38.93 44.46 39.41 44.54C39.8 44.6 40.34 43.98 41.18 43.45Z" fill="#444444" fill-opacity="1.000000" fill-rule="nonzero"/>
	<path id="Vector" d="M40.06 33.36C40.48 33.72 40.93 34.08 41.33 34.45C37.63 38.12 34.13 41.57 30.47 45.18C30.16 44.76 29.79 44.29 29.56 43.98C33 40.5 36.5 36.97 40.06 33.36Z" fill="#444444" fill-opacity="1.000000" fill-rule="nonzero"/>
	<path id="Vector" d="M80.08 41.57C79.63 42.16 79.29 42.58 78.86 43.14C78.22 42.52 77.74 42.1 77.29 41.65C74.46 38.85 71.67 36.05 68.82 33.27C68.23 32.71 68.12 32.29 68.77 31.67C69.33 31.11 69.75 31.14 70.29 31.67C73.45 34.84 76.64 37.98 79.82 41.15C79.94 41.23 79.99 41.43 80.08 41.57Z" fill="#444444" fill-opacity="1.000000" fill-rule="nonzero"/>
	<path id="Vector" d="M77.82 43.81C76.55 45.52 76.52 45.52 75.23 44.23C72.38 41.4 69.53 38.54 66.65 35.74C66.09 35.21 65.69 34.76 66.4 34C67.13 33.22 67.58 33.64 68.12 34.17C71.33 37.39 74.55 40.56 77.82 43.81Z" fill="#444444" fill-opacity="1.000000" fill-rule="nonzero"/>
	<path id="Vector" d="M38.87 32.32C35.32 35.82 31.82 39.24 28.29 42.72C26.71 41.82 26.69 41.65 28.01 40.34C30.78 37.59 33.54 34.87 36.28 32.12C37.63 30.78 37.63 30.78 38.87 32.32Z" fill="#444444" fill-opacity="1.000000" fill-rule="nonzero"/>
	<path id="Vector" d="M67.64 41.65C68.18 42.44 68.8 42.91 68.77 43.36C68.74 43.81 68.06 44.23 67.67 44.65C67.22 44.23 66.48 43.87 66.4 43.36C66.34 42.97 67.05 42.44 67.64 41.65Z" fill="#FFFFFF" fill-opacity="1.000000" fill-rule="nonzero"/>
	<path id="Vector" d="M41.18 43.45C40.34 43.98 39.83 44.6 39.38 44.51C38.9 44.46 38.53 43.75 38.11 43.33C38.56 42.91 38.98 42.21 39.49 42.13C39.89 42.1 40.39 42.83 41.18 43.45Z" fill="#FFFFFF" fill-opacity="1.000000" fill-rule="nonzero"/>
	<path id="Car Doctor" d="M6.46 69.14Q7.13 68.81 8 68.81Q8.78 68.81 9.59 69.09Q10.4 69.37 11.2 69.75L12.18 67.29Q12.11 67.26 12.05 67.23Q11.13 66.81 10.13 66.56Q9.06 66.29 8 66.29Q6.38 66.29 5.13 66.83Q4.23 67.21 3.54 67.82Q3.27 68.07 3.03 68.35Q2.18 69.33 1.74 70.68Q1.3 72.03 1.3 73.65Q1.3 75.85 1.98 77.49Q2.43 78.56 3.18 79.32Q3.59 79.73 4.09 80.05Q5.51 80.97 7.71 80.97Q8.86 80.97 9.77 80.79Q10.69 80.62 11.64 80.23L11.64 77.69Q10.61 78.06 9.74 78.25Q8.87 78.45 8 78.45Q6.75 78.45 5.96 77.88Q5.88 77.83 5.8 77.77Q5.13 77.22 4.79 76.25Q4.41 75.18 4.41 73.67Q4.41 72.55 4.65 71.65Q4.88 70.75 5.34 70.12Q5.64 69.69 6.05 69.39Q6.24 69.25 6.46 69.14ZM51.96 77.52Q52.88 75.91 52.88 73.5Q52.88 71.2 51.97 69.64Q51.56 68.94 51 68.39Q50.32 67.72 49.41 67.29Q47.76 66.49 45.52 66.49L41.03 66.49L41.03 80.77L45.08 80.77Q47.54 80.77 49.29 79.96Q50.33 79.47 51.08 78.7Q51.59 78.17 51.96 77.52ZM83.82 78.5Q83.36 78.59 82.87 78.59Q82.34 78.59 81.99 78.34Q81.96 78.31 81.93 78.29Q81.88 78.25 81.84 78.2Q81.57 77.9 81.57 77.35L81.57 72.09L84.63 72.09L84.63 69.85L81.57 69.85L81.57 67.53L79.67 67.53L78.81 69.83L77.17 70.83L77.17 72.09L78.59 72.09L78.59 77.35Q78.59 78.76 79.04 79.54Q79.33 80.07 79.78 80.39Q80 80.54 80.26 80.65Q81.03 80.97 82.01 80.97Q82.85 80.97 83.56 80.82Q84.27 80.68 84.75 80.47L84.75 78.25Q84.29 78.4 83.82 78.5ZM49.27 70.97Q49.74 71.99 49.74 73.57Q49.74 75.91 48.66 77.09Q48.59 77.16 48.52 77.23Q47.44 78.27 45.36 78.27L44.06 78.27L44.06 68.97L45.67 68.97Q47 68.97 47.9 69.46Q48.16 69.6 48.39 69.79Q48.94 70.24 49.27 70.97ZM22.28 70.58Q21.11 69.63 18.91 69.63Q17.76 69.63 16.68 69.89Q15.6 70.16 14.74 70.61L15.72 72.63Q16.48 72.28 17.25 72.06Q17.66 71.94 18.09 71.88Q18.44 71.83 18.8 71.83Q19.59 71.83 20.04 72.23Q20.04 72.23 20.05 72.24Q20.07 72.25 20.09 72.27Q20.5 72.67 20.5 73.5L20.5 73.97L18.6 74.03Q16.16 74.12 14.94 74.95Q14.55 75.21 14.29 75.56Q13.72 76.32 13.72 77.51Q13.72 78.69 14.16 79.46Q14.43 79.92 14.81 80.24Q15.06 80.45 15.37 80.59Q16.13 80.97 17.1 80.97Q18.01 80.97 18.64 80.79Q19.27 80.62 19.75 80.26Q19.76 80.25 19.76 80.24Q20.25 79.87 20.72 79.29L20.8 79.29L21.38 80.77L23.46 80.77L23.46 73.5Q23.46 71.89 22.66 70.96Q22.49 70.75 22.28 70.58ZM33.14 69.67Q32.84 69.65 32.62 69.65Q32.01 69.65 31.47 69.84Q31.37 69.88 31.27 69.93Q30.89 70.1 30.55 70.35Q30.35 70.49 30.17 70.67Q29.69 71.13 29.36 71.69L29.22 71.69L28.78 69.85L26.52 69.85L26.52 80.77L29.5 80.77L29.5 75.21Q29.5 74.44 29.75 73.91Q29.96 73.45 30.31 73.15Q30.37 73.1 30.43 73.05Q30.53 72.97 30.64 72.9Q30.99 72.69 31.4 72.58Q31.47 72.56 31.54 72.54Q32.02 72.43 32.52 72.43Q32.71 72.43 32.98 72.46Q33.25 72.48 33.4 72.53L33.62 69.74Q33.44 69.7 33.14 69.67ZM65.16 77.71Q65.53 76.66 65.53 75.29Q65.53 73.48 64.85 72.22Q64.39 71.37 63.71 70.8Q63.37 70.52 62.98 70.3Q62.95 70.28 62.91 70.26Q61.75 69.65 60.26 69.65Q58.61 69.65 57.42 70.3Q56.96 70.55 56.59 70.89Q55.98 71.44 55.58 72.22Q54.94 73.48 54.94 75.29Q54.94 76.66 55.33 77.71Q55.71 78.77 56.42 79.5Q56.71 79.8 57.05 80.04Q57.53 80.38 58.09 80.59Q59.05 80.97 60.2 80.97Q61.43 80.97 62.42 80.59Q63.11 80.33 63.66 79.9Q63.89 79.71 64.1 79.5Q64.79 78.77 65.16 77.71ZM69.66 80.37Q70.8 80.97 72.42 80.97Q73.56 80.97 74.31 80.78Q74.33 80.77 74.36 80.76Q75.08 80.57 75.74 80.16L75.74 77.61Q75.06 78.06 74.33 78.3Q73.61 78.55 72.68 78.55Q71.96 78.55 71.45 78.22Q71.44 78.22 71.42 78.21Q70.91 77.86 70.63 77.15Q70.36 76.43 70.36 75.35Q70.36 74.25 70.61 73.51Q70.87 72.79 71.37 72.42Q71.38 72.42 71.39 72.42Q71.9 72.05 72.68 72.05Q73.29 72.05 73.9 72.23Q74.5 72.41 75.2 72.69L76.08 70.39Q75.47 70.09 74.64 69.87Q73.82 69.65 72.68 69.65Q71.09 69.65 69.89 70.24Q69.49 70.44 69.15 70.7Q68.46 71.25 68 72.1Q67.32 73.37 67.32 75.37Q67.32 77.3 67.92 78.54Q68.32 79.37 68.95 79.91Q69.27 80.18 69.66 80.37ZM96.51 77.71Q96.87 76.66 96.87 75.29Q96.87 73.48 96.2 72.22Q95.74 71.37 95.06 70.8Q94.72 70.52 94.33 70.3Q94.29 70.28 94.26 70.26Q93.1 69.65 91.61 69.65Q89.96 69.65 88.77 70.3Q88.31 70.55 87.93 70.89Q87.33 71.44 86.93 72.22Q86.29 73.48 86.29 75.29Q86.29 76.66 86.67 77.71Q87.06 78.77 87.77 79.5Q88.06 79.8 88.4 80.04Q88.88 80.38 89.44 80.59Q90.4 80.97 91.55 80.97Q92.78 80.97 93.76 80.59Q94.45 80.33 95 79.9Q95.24 79.71 95.44 79.5Q96.14 78.77 96.51 77.71ZM105.95 69.67Q105.65 69.65 105.43 69.65Q104.82 69.65 104.28 69.84Q104.18 69.88 104.09 69.93Q103.7 70.1 103.37 70.35Q103.16 70.49 102.98 70.67Q102.5 71.13 102.18 71.69L102.03 71.69L101.59 69.85L99.33 69.85L99.33 80.77L102.31 80.77L102.31 75.21Q102.31 74.44 102.56 73.91Q102.78 73.45 103.12 73.15Q103.18 73.1 103.24 73.05Q103.34 72.97 103.45 72.9Q103.8 72.69 104.21 72.58Q104.28 72.56 104.35 72.54Q104.83 72.43 105.33 72.43Q105.53 72.43 105.8 72.46Q106.06 72.48 106.21 72.53L106.43 69.74Q106.25 69.7 105.95 69.67ZM58.21 77.1Q57.98 76.37 57.98 75.29Q57.98 73.67 58.51 72.86Q58.66 72.63 58.87 72.46Q59.38 72.05 60.22 72.05Q61.02 72.05 61.52 72.41Q61.53 72.42 61.55 72.43Q62.03 72.79 62.25 73.49Q62.48 74.21 62.48 75.29Q62.48 76.37 62.25 77.1Q62.02 77.83 61.53 78.2Q61.03 78.57 60.24 78.57Q59.44 78.57 58.94 78.2Q58.45 77.83 58.21 77.1ZM89.56 77.1Q89.33 76.37 89.33 75.29Q89.33 73.67 89.86 72.86Q90.01 72.63 90.22 72.46Q90.73 72.05 91.57 72.05Q92.37 72.05 92.87 72.41Q92.88 72.42 92.89 72.43Q93.37 72.79 93.6 73.49Q93.83 74.21 93.83 75.29Q93.83 76.37 93.6 77.1Q93.37 77.83 92.87 78.2Q92.38 78.57 91.59 78.57Q90.79 78.57 90.29 78.2Q89.79 77.83 89.56 77.1ZM19.34 75.75L20.5 75.71L20.5 76.61Q20.5 77.4 20.12 77.91Q20 78.08 19.84 78.22Q19.64 78.39 19.41 78.51Q18.89 78.79 18.22 78.79Q17.58 78.79 17.18 78.5Q17.12 78.46 17.07 78.41Q16.78 78.11 16.78 77.53Q16.78 77.07 16.97 76.72Q17.1 76.47 17.34 76.27Q17.9 75.79 19.34 75.75Z" fill="#444444" fill-opacity="1.000000" fill-rule="evenodd"/>
</svg>
